PathFileType	4	(X/Y/Z)	C:/Users/opensim2020/Desktop/walking_exp_matlab/subject06_walking21_straight_01.trc																																																																																																																																		
DataRate	CameraRate	NumFrames	NumMarkers	Units	OrigDataRate	OrigDataStartFrame	OrigNumFrames																																																																																																																														
100	100	4	44	mm	100	759	155																																																																																																																														
Frame#	Time	LFHD			RFHD			LBHD			RBHD			C7			T10			CLAV			STRN			RBAK			LSHO			LUPA			LELB			LFRM			LWRA			LWRB			LFIN			RSHO			RUPA			RELB			RFRM			RWRA			RWRB			RFIN			LASI			RASI			LPSI			RPSI			LTHI			LKNE			LTIB			LANK			LHEE			LTOE			RTHI			RKNE			RTIB			RANK			RHEE			RTOE			*39			*40			*41			*42			*43		
		X1	Y1	Z1	X2	Y2	Z2	X3	Y3	Z3	X4	Y4	Z4	X5	Y5	Z5	X6	Y6	Z6	X7	Y7	Z7	X8	Y8	Z8	X9	Y9	Z9	X10	Y10	Z10	X11	Y11	Z11	X12	Y12	Z12	X13	Y13	Z13	X14	Y14	Z14	X15	Y15	Z15	X16	Y16	Z16	X17	Y17	Z17	X18	Y18	Z18	X19	Y19	Z19	X20	Y20	Z20	X21	Y21	Z21	X22	Y22	Z22	X23	Y23	Z23	X24	Y24	Z24	X25	Y25	Z25	X26	Y26	Z26	X27	Y27	Z27	X28	Y28	Z28	X29	Y29	Z29	X30	Y30	Z30	X31	Y31	Z31	X32	Y32	Z32	X33	Y33	Z33	X34	Y34	Z34	X35	Y35	Z35	X36	Y36	Z36	X37	Y37	Z37	X38	Y38	Z38	X39	Y39	Z39	X40	Y40	Z40	X41	Y41	Z41	X42	Y42	Z42	X43	Y43	Z43	X44	Y44	Z44
																																																																																																																																					
1	0	-957.49615	1624.66663	-1035.06238	-971.43604	1603.33447	-906.44806	-1092.95837	1575.54614	-1052.70679	-1103.65308	1559.3761	-924.53436	-1106.69409	1416.9928	-1004.20557	-1171.44653	1093.88721	-1001.52393	-1003.15326	1329.11853	-1002.27942	-980.80969	1150.96155	-1016.72577	-1195.98267	1251.65588	-932.94684	-1047.72839	1369.40991	-1160.87122	-1033.31848	1172.11084	-1237.75598	-1017.4707	1061.56006	-1251.87195	-901.03253	975.11255	-1247.67627	-787.51593	961.1051	-1178.88245	-812.59332	903.0509	-1213.73938	-722.13696	895.53314	-1198.26257	-1050.53137	1362.20642	-840.82111	-1129.8042	1176.18433	-758.26471	-1146.91504	1055.91772	-741.81543	-1158.87488	936.83899	-719.19305	-1128.70044	786.22437	-739.06372	-1184.39355	802.08777	-704.4881	-1167.27832	720.12018	-697.01563	-1027.40674	914.6524	-1122.55933	-994.74921	930.53235	-904.43396	-1175.17847	959.21881	-1076.7489	-1147.00378	964.78168	-911.78577	-1177.10217	615.62909	-1162.45605	-1222.47266	457.14948	-1141.1012	-1416.79639	277.55533	-1115.85815	-1524.07251	153.57063	-1068.84058	-1554.86316	165.84723	-1016.97363	-1441.01746	37.05113	-1091.11462	-963.1734	624.10236	-837.0509	-906.16394	515.14844	-871.69006	-899.16266	249.45932	-877.22296	-895.18982	66.76936	-926.92383	-934.12677	43.69176	-971.30872	-743.06482	34.57479	-927.30786	-1063.07422	1661.67212	-983.1991	NaN	NaN	NaN	NaN	NaN	NaN	NaN	NaN	NaN	NaN	NaN	NaN
2	0.01	-945.66144	1628.17041	-1033.48535	-959.85498	1606.72498	-905.30359	-1081.16235	1579.28174	-1051.75867	-1091.99524	1562.93738	-923.77063	-1094.75366	1420.15784	-1003.50116	-1158.65845	1097.255	-1001.17474	-990.92572	1332.9187	-1001.35699	-967.65601	1154.86279	-1015.61487	-1183.38	1254.86938	-932.40204	-1036.56812	1373.13965	-1161.40918	-1020.65259	1175.59082	-1236.14209	-1005.99445	1065.00623	-1250.39502	-890.80212	976.39886	-1246.9668	-777.55042	959.8819	-1178.19531	-803.35107	902.6521	-1213.79651	-713.06085	893.73157	-1198.44727	-1038.71619	1365.98206	-840.05847	-1117.03821	1179.56897	-757.54022	-1133.34595	1059.01599	-741.55585	-1144.24744	939.8205	-719.37946	-1112.30005	789.62744	-739.58569	-1168.45837	804.86914	-705.12347	-1150.69238	722.92584	-698.04126	-1014.32141	918.10468	-1121.27356	-982.06689	933.77631	-904.23401	-1161.83203	962.21252	-1075.83643	-1133.73303	968.6933	-910.98889	-1159.99817	616.58807	-1162.08435	-1202.12207	457.26535	-1141.98621	-1401.42908	284.26855	-1114.84473	-1511.68115	163.89954	-1067.4115	-1540.797	177.69307	-1014.97009	-1438.31091	40.08059	-1091.39783	-955.39233	623.23511	-837.3504	-899.1969	514.71277	-872.08917	-896.52667	249.40065	-877.57166	-894.82306	66.78506	-927.02344	-934.16425	43.64334	-971.27222	-742.73431	34.24918	-927.77271	-1051.38196	1665.27991	-982.07672	NaN	NaN	NaN	NaN	NaN	NaN	NaN	NaN	NaN	NaN	NaN	NaN
3	0.02	-933.87091	1631.55383	-1032.35303	-948.36005	1609.94519	-904.14954	-1069.40845	1582.94067	-1050.90735	-1080.55383	1566.39099	-922.92914	-1082.91833	1423.30591	-1002.7486	-1145.95496	1100.44775	-1000.61871	-978.60474	1336.53564	-1000.68677	-954.6192	1158.59265	-1014.65594	-1170.73633	1257.90881	-931.56793	-1024.49048	1376.6311	-1160.4187	-1008.5509	1179.16003	-1234.71606	-994.59009	1068.45825	-1249.08643	-881.05719	977.45178	-1246.35779	-768.04553	957.96307	-1177.78967	-793.50476	903.0697	-1214.59534	-704.78204	891.01208	-1198.90869	-1026.71277	1369.74622	-839.35944	-1104.28992	1183.05017	-756.72034	-1119.80798	1062.21497	-741.23682	-1129.44849	942.84302	-719.47632	-1095.49646	793.22595	-740.02405	-1152.0415	807.48682	-705.9588	-1133.31067	725.76318	-699.19	-1001.18268	921.38995	-1119.52026	-969.56592	937.01886	-903.73694	-1148.81323	965.18854	-1074.80493	-1120.76746	972.49017	-909.95361	-1142.61157	617.43164	-1162.07214	-1181.35925	457.34558	-1143.11499	-1385.02869	290.95322	-1113.8717	-1498.41699	174.18718	-1066.07764	-1525.33459	189.61604	-1013.25873	-1433.41516	44.40173	-1090.79138	-945.40405	623.80176	-837.36633	-891.362	514.73376	-873.72021	-894.18005	249.77771	-877.50671	-894.50067	66.88715	-927.0733	-934.18182	43.63114	-971.23444	-742.58929	34.11649	-928.07941	-1039.60315	1668.83398	-981.01898	NaN	NaN	NaN	NaN	NaN	NaN	NaN	NaN	NaN	NaN	NaN	NaN
4	0.03	-922.23163	1634.79443	-1031.43054	-936.96826	1612.99841	-903.17584	-1057.7168	1586.36768	-1050.17249	-1069.06909	1569.66113	-922.21576	-1071.0354	1426.10437	-1001.92828	-1133.36597	1103.42249	-999.81238	-966.55713	1339.94678	-999.65485	-941.86652	1162.02502	-1013.74335	-1158.26416	1260.74866	-930.52808	-1012.81989	1380.12073	-1159.58667	-997.27319	1182.73511	-1233.77893	-983.56055	1071.83142	-1247.48071	-871.61017	978.20923	-1245.65088	-758.99371	955.4726	-1177.5647	-787.01886	900.19403	-1214.46619	-697.19177	887.46777	-1199.57983	-1014.69934	1373.38391	-838.70984	-1091.50195	1186.47595	-755.8786	-1106.30701	1065.37708	-740.74298	-1114.44861	945.82025	-719.46954	-1078.05066	796.95685	-740.40424	-1135.29028	810.02478	-706.52521	-1115.02551	728.37665	-700.46753	-988.58698	924.52136	-1118.27136	-957.72424	939.36975	-903.03662	-1136.09229	968.07117	-1073.81128	-1108.27063	976.00305	-908.88641	-1124.25342	618.1745	-1162.60547	-1160.1571	457.42249	-1144.22607	-1362.79163	300.62628	-1114.04407	-1483.08948	184.14265	-1064.85107	-1507.85803	201.35963	-1011.49585	-1426.99231	49.16182	-1089.7865	-935.01733	625.07239	-837.57617	-884.5437	514.9082	-874.00793	-891.84076	250.23749	-877.29901	-894.4209	66.96799	-927.05243	-934.34918	43.59462	-971.20154	-742.69928	34.1293	-928.29932	-1027.91431	1672.06738	-980.12726	NaN	NaN	NaN	NaN	NaN	NaN	NaN	NaN	NaN	NaN	NaN	NaN
